<svg width="279" height="146" viewBox="0 0 279 146" fill="none" xmlns="http://www.w3.org/2000/svg">
<g filter="url(#filter0_d_7_9)">
<path d="M166.827 124H150.327V77.4545H166.963C171.645 77.4545 175.675 78.3864 179.054 80.25C182.433 82.0985 185.031 84.7576 186.849 88.2273C188.683 91.697 189.599 95.8485 189.599 100.682C189.599 105.53 188.683 109.697 186.849 113.182C185.031 116.667 182.418 119.341 179.009 121.205C175.615 123.068 171.554 124 166.827 124ZM160.168 115.568H166.418C169.327 115.568 171.774 115.053 173.759 114.023C175.759 112.977 177.259 111.364 178.259 109.182C179.274 106.985 179.781 104.152 179.781 100.682C179.781 97.2424 179.274 94.4318 178.259 92.25C177.259 90.0682 175.766 88.4621 173.781 87.4318C171.796 86.4015 169.349 85.8864 166.44 85.8864H160.168V115.568ZM222.139 90.8409C221.957 89.0076 221.177 87.5833 219.798 86.5682C218.42 85.553 216.548 85.0455 214.185 85.0455C212.579 85.0455 211.223 85.2727 210.116 85.7273C209.01 86.1667 208.162 86.7803 207.571 87.5682C206.995 88.3561 206.707 89.25 206.707 90.25C206.677 91.0833 206.851 91.8106 207.23 92.4318C207.624 93.053 208.162 93.5909 208.844 94.0455C209.526 94.4848 210.313 94.8712 211.207 95.2045C212.101 95.5227 213.056 95.7955 214.071 96.0227L218.253 97.0227C220.283 97.4773 222.147 98.0833 223.844 98.8409C225.541 99.5985 227.01 100.53 228.253 101.636C229.495 102.742 230.457 104.045 231.139 105.545C231.836 107.045 232.192 108.765 232.207 110.705C232.192 113.553 231.465 116.023 230.026 118.114C228.601 120.189 226.541 121.803 223.844 122.955C221.162 124.091 217.927 124.659 214.139 124.659C210.382 124.659 207.109 124.083 204.321 122.932C201.548 121.78 199.382 120.076 197.821 117.818C196.276 115.545 195.465 112.735 195.389 109.386H204.912C205.018 110.947 205.465 112.25 206.253 113.295C207.056 114.326 208.124 115.106 209.457 115.636C210.806 116.152 212.329 116.409 214.026 116.409C215.692 116.409 217.139 116.167 218.366 115.682C219.609 115.197 220.571 114.523 221.253 113.659C221.935 112.795 222.276 111.803 222.276 110.682C222.276 109.636 221.965 108.758 221.344 108.045C220.738 107.333 219.844 106.727 218.662 106.227C217.495 105.727 216.063 105.273 214.366 104.864L209.298 103.591C205.374 102.636 202.276 101.144 200.003 99.1136C197.73 97.0833 196.601 94.3485 196.616 90.9091C196.601 88.0909 197.351 85.6288 198.866 83.5227C200.397 81.4167 202.495 79.7727 205.162 78.5909C207.829 77.4091 210.859 76.8182 214.253 76.8182C217.707 76.8182 220.723 77.4091 223.298 78.5909C225.889 79.7727 227.904 81.4167 229.344 83.5227C230.783 85.6288 231.526 88.0682 231.571 90.8409H222.139ZM264.077 90.8409C263.895 89.0076 263.115 87.5833 261.736 86.5682C260.357 85.553 258.486 85.0455 256.122 85.0455C254.516 85.0455 253.16 85.2727 252.054 85.7273C250.948 86.1667 250.099 86.7803 249.509 87.5682C248.933 88.3561 248.645 89.25 248.645 90.25C248.615 91.0833 248.789 91.8106 249.168 92.4318C249.562 93.053 250.099 93.5909 250.781 94.0455C251.463 94.4848 252.251 94.8712 253.145 95.2045C254.039 95.5227 254.993 95.7955 256.009 96.0227L260.19 97.0227C262.221 97.4773 264.084 98.0833 265.781 98.8409C267.478 99.5985 268.948 100.53 270.19 101.636C271.433 102.742 272.395 104.045 273.077 105.545C273.774 107.045 274.13 108.765 274.145 110.705C274.13 113.553 273.402 116.023 271.963 118.114C270.539 120.189 268.478 121.803 265.781 122.955C263.099 124.091 259.865 124.659 256.077 124.659C252.319 124.659 249.046 124.083 246.259 122.932C243.486 121.78 241.319 120.076 239.759 117.818C238.213 115.545 237.402 112.735 237.327 109.386H246.849C246.955 110.947 247.402 112.25 248.19 113.295C248.993 114.326 250.062 115.106 251.395 115.636C252.743 116.152 254.266 116.409 255.963 116.409C257.63 116.409 259.077 116.167 260.304 115.682C261.546 115.197 262.509 114.523 263.19 113.659C263.872 112.795 264.213 111.803 264.213 110.682C264.213 109.636 263.902 108.758 263.281 108.045C262.675 107.333 261.781 106.727 260.599 106.227C259.433 105.727 258.001 105.273 256.304 104.864L251.236 103.591C247.312 102.636 244.213 101.144 241.94 99.1136C239.668 97.0833 238.539 94.3485 238.554 90.9091C238.539 88.0909 239.289 85.6288 240.804 83.5227C242.334 81.4167 244.433 79.7727 247.099 78.5909C249.766 77.4091 252.796 76.8182 256.19 76.8182C259.645 76.8182 262.66 77.4091 265.236 78.5909C267.827 79.7727 269.842 81.4167 271.281 83.5227C272.721 85.6288 273.463 88.0682 273.509 90.8409H264.077Z" fill="url(#paint0_radial_7_9)" shape-rendering="crispEdges"/>
</g>
<g filter="url(#filter1_d_7_9)">
<path d="M15.0994 124H4.55398L20.6222 77.4545H33.304L49.3494 124H38.804L27.1449 88.0909H26.7812L15.0994 124ZM14.4403 105.705H39.3494V113.386H14.4403V105.705ZM68.8722 137.818C65.7358 137.818 63.0464 137.386 60.804 136.523C58.5767 135.674 56.804 134.515 55.4858 133.045C54.1676 131.576 53.3116 129.924 52.9176 128.091L61.8722 126.886C62.1449 127.583 62.5767 128.235 63.1676 128.841C63.7585 129.447 64.5388 129.932 65.5085 130.295C66.4934 130.674 67.6903 130.864 69.0994 130.864C71.2055 130.864 72.9403 130.348 74.304 129.318C75.6828 128.303 76.3722 126.598 76.3722 124.205V117.818H75.9631C75.5388 118.788 74.9025 119.705 74.054 120.568C73.2055 121.432 72.1146 122.136 70.7812 122.682C69.4479 123.227 67.857 123.5 66.0085 123.5C63.3873 123.5 61.0009 122.894 58.8494 121.682C56.7131 120.455 55.0085 118.583 53.7358 116.068C52.4782 113.538 51.8494 110.341 51.8494 106.477C51.8494 102.523 52.4934 99.2197 53.7812 96.5682C55.0691 93.9167 56.7813 91.9318 58.9176 90.6136C61.0691 89.2955 63.4252 88.6364 65.9858 88.6364C67.9403 88.6364 69.5767 88.9697 70.8949 89.6364C72.2131 90.2879 73.2737 91.1061 74.0767 92.0909C74.8949 93.0606 75.5237 94.0152 75.9631 94.9545H76.3267V89.0909H85.9403V124.341C85.9403 127.311 85.2131 129.795 83.7585 131.795C82.304 133.795 80.2888 135.295 77.7131 136.295C75.1525 137.311 72.2055 137.818 68.8722 137.818ZM69.0767 116.227C70.6373 116.227 71.9555 115.841 73.0312 115.068C74.1222 114.28 74.9555 113.159 75.5312 111.705C76.1222 110.235 76.4176 108.477 76.4176 106.432C76.4176 104.386 76.1297 102.614 75.554 101.114C74.9782 99.5985 74.1449 98.4242 73.054 97.5909C71.9631 96.7576 70.6373 96.3409 69.0767 96.3409C67.4858 96.3409 66.1449 96.7727 65.054 97.6364C63.9631 98.4848 63.1373 99.6667 62.5767 101.182C62.0161 102.697 61.7358 104.447 61.7358 106.432C61.7358 108.447 62.0161 110.189 62.5767 111.659C63.1525 113.114 63.9782 114.242 65.054 115.045C66.1449 115.833 67.4858 116.227 69.0767 116.227ZM93.6449 124V89.0909H103.031V95.1818H103.395C104.031 93.0152 105.099 91.3788 106.599 90.2727C108.099 89.1515 109.827 88.5909 111.781 88.5909C112.266 88.5909 112.789 88.6212 113.349 88.6818C113.91 88.7424 114.402 88.8258 114.827 88.9318V97.5227C114.372 97.3864 113.743 97.2652 112.94 97.1591C112.137 97.053 111.402 97 110.736 97C109.312 97 108.039 97.3106 106.918 97.9318C105.812 98.5379 104.933 99.3864 104.281 100.477C103.645 101.568 103.327 102.826 103.327 104.25V124H93.6449Z" fill="url(#paint1_radial_7_9)" shape-rendering="crispEdges"/>
</g>
<g filter="url(#filter2_d_7_9)">
<path d="M137.824 77.4545V124H125.188V77.4545H137.824Z" fill="url(#paint2_radial_7_9)" shape-rendering="crispEdges"/>
</g>
<path d="M164.879 35.1133C166.024 52.1 153.306 66.9043 136.284 68.2833C134.52 68.4262 132.778 68.4193 131.072 68.2734C129.927 51.2868 142.645 36.4824 159.667 35.1035C161.431 34.9606 163.173 34.9674 164.879 35.1133Z" fill="url(#paint3_linear_7_9)"/>
<path d="M131.215 0.197318C150.312 18.2987 152.748 47.3239 136.568 65.3266C134.892 67.1922 133.08 68.8667 131.159 70.3503C112.061 52.2489 109.626 23.2238 125.805 5.22099C127.482 3.35546 129.293 1.68088 131.215 0.197318Z" fill="url(#paint4_linear_7_9)"/>
<path d="M98.1133 35.0716C115.1 33.9266 129.904 46.6445 131.283 63.6671C131.426 65.4311 131.419 67.1726 131.274 68.8792C114.287 70.0242 99.4824 57.3063 98.1035 40.2837C97.9606 38.5198 97.9674 36.7782 98.1133 35.0716Z" fill="url(#paint5_linear_7_9)"/>
<circle cx="131.592" cy="55.5916" r="15.5916" fill="url(#paint6_linear_7_9)"/>
<defs>
<filter id="filter0_d_7_9" x="146.327" y="76.8182" width="131.818" height="55.8409" filterUnits="userSpaceOnUse" color-interpolation-filters="sRGB">
<feFlood flood-opacity="0" result="BackgroundImageFix"/>
<feColorMatrix in="SourceAlpha" type="matrix" values="0 0 0 0 0 0 0 0 0 0 0 0 0 0 0 0 0 0 127 0" result="hardAlpha"/>
<feOffset dy="4"/>
<feGaussianBlur stdDeviation="2"/>
<feComposite in2="hardAlpha" operator="out"/>
<feColorMatrix type="matrix" values="0 0 0 0 0 0 0 0 0 0 0 0 0 0 0 0 0 0 0.25 0"/>
<feBlend mode="normal" in2="BackgroundImageFix" result="effect1_dropShadow_7_9"/>
<feBlend mode="normal" in="SourceGraphic" in2="effect1_dropShadow_7_9" result="shape"/>
</filter>
<filter id="filter1_d_7_9" x="0.553955" y="77.4545" width="118.273" height="68.3636" filterUnits="userSpaceOnUse" color-interpolation-filters="sRGB">
<feFlood flood-opacity="0" result="BackgroundImageFix"/>
<feColorMatrix in="SourceAlpha" type="matrix" values="0 0 0 0 0 0 0 0 0 0 0 0 0 0 0 0 0 0 127 0" result="hardAlpha"/>
<feOffset dy="4"/>
<feGaussianBlur stdDeviation="2"/>
<feComposite in2="hardAlpha" operator="out"/>
<feColorMatrix type="matrix" values="0 0 0 0 0 0 0 0 0 0 0 0 0 0 0 0 0 0 0.25 0"/>
<feBlend mode="normal" in2="BackgroundImageFix" result="effect1_dropShadow_7_9"/>
<feBlend mode="normal" in="SourceGraphic" in2="effect1_dropShadow_7_9" result="shape"/>
</filter>
<filter id="filter2_d_7_9" x="121.188" y="77.4545" width="20.6364" height="54.5455" filterUnits="userSpaceOnUse" color-interpolation-filters="sRGB">
<feFlood flood-opacity="0" result="BackgroundImageFix"/>
<feColorMatrix in="SourceAlpha" type="matrix" values="0 0 0 0 0 0 0 0 0 0 0 0 0 0 0 0 0 0 127 0" result="hardAlpha"/>
<feOffset dy="4"/>
<feGaussianBlur stdDeviation="2"/>
<feComposite in2="hardAlpha" operator="out"/>
<feColorMatrix type="matrix" values="0 0 0 0 0 0 0 0 0 0 0 0 0 0 0 0 0 0 0.25 0"/>
<feBlend mode="normal" in2="BackgroundImageFix" result="effect1_dropShadow_7_9"/>
<feBlend mode="normal" in="SourceGraphic" in2="effect1_dropShadow_7_9" result="shape"/>
</filter>
<radialGradient id="paint0_radial_7_9" cx="0" cy="0" r="1" gradientUnits="userSpaceOnUse" gradientTransform="translate(204.38 83.8513) rotate(80.0068) scale(205.263 351.762)">
<stop stop-color="#196D3A"/>
<stop offset="1" stop-color="#22B24B" stop-opacity="0"/>
</radialGradient>
<radialGradient id="paint1_radial_7_9" cx="0" cy="0" r="1" gradientUnits="userSpaceOnUse" gradientTransform="translate(53.3587 83.8513) rotate(81.3576) scale(204.47 304.605)">
<stop stop-color="#196D3A"/>
<stop offset="1" stop-color="#22B24B" stop-opacity="0"/>
</radialGradient>
<radialGradient id="paint2_radial_7_9" cx="0" cy="0" r="1" gradientUnits="userSpaceOnUse" gradientTransform="translate(129.815 83.8513) rotate(87.6123) scale(202.324 84.4504)">
<stop stop-color="#196D3A"/>
<stop offset="1" stop-color="#22B24B" stop-opacity="0"/>
</radialGradient>
<linearGradient id="paint3_linear_7_9" x1="148.22" y1="47.8508" x2="147.084" y2="125.466" gradientUnits="userSpaceOnUse">
<stop stop-color="#196D3A"/>
<stop offset="1" stop-color="#196D3A" stop-opacity="0"/>
</linearGradient>
<linearGradient id="paint4_linear_7_9" x1="127.388" y1="30.693" x2="207.823" y2="119.759" gradientUnits="userSpaceOnUse">
<stop stop-color="#196D3A"/>
<stop offset="1" stop-color="#196D3A" stop-opacity="0"/>
</linearGradient>
<linearGradient id="paint5_linear_7_9" x1="114.934" y1="48.0679" x2="113.74" y2="126.994" gradientUnits="userSpaceOnUse">
<stop stop-color="#196D3A"/>
<stop offset="1" stop-color="#196D3A" stop-opacity="0"/>
</linearGradient>
<linearGradient id="paint6_linear_7_9" x1="131.816" y1="52.0026" x2="130.737" y2="124.495" gradientUnits="userSpaceOnUse">
<stop stop-color="#196D3A"/>
<stop offset="1" stop-color="#196D3A" stop-opacity="0"/>
</linearGradient>
</defs>
</svg>
