<svg width="356" height="84" viewBox="0 0 356 84" fill="none" xmlns="http://www.w3.org/2000/svg">
<g filter="url(#filter0_d_7_8)">
<path d="M243.827 62H227.327V15.4545H243.963C248.645 15.4545 252.675 16.3864 256.054 18.25C259.433 20.0985 262.031 22.7576 263.849 26.2273C265.683 29.697 266.599 33.8485 266.599 38.6818C266.599 43.5303 265.683 47.697 263.849 51.1818C262.031 54.6667 259.418 57.3409 256.009 59.2045C252.615 61.0682 248.554 62 243.827 62ZM237.168 53.5682H243.418C246.327 53.5682 248.774 53.053 250.759 52.0227C252.759 50.9773 254.259 49.3636 255.259 47.1818C256.274 44.9848 256.781 42.1515 256.781 38.6818C256.781 35.2424 256.274 32.4318 255.259 30.25C254.259 28.0682 252.766 26.4621 250.781 25.4318C248.796 24.4015 246.349 23.8864 243.44 23.8864H237.168V53.5682ZM299.139 28.8409C298.957 27.0076 298.177 25.5833 296.798 24.5682C295.42 23.553 293.548 23.0455 291.185 23.0455C289.579 23.0455 288.223 23.2727 287.116 23.7273C286.01 24.1667 285.162 24.7803 284.571 25.5682C283.995 26.3561 283.707 27.25 283.707 28.25C283.677 29.0833 283.851 29.8106 284.23 30.4318C284.624 31.053 285.162 31.5909 285.844 32.0455C286.526 32.4848 287.313 32.8712 288.207 33.2045C289.101 33.5227 290.056 33.7955 291.071 34.0227L295.253 35.0227C297.283 35.4773 299.147 36.0833 300.844 36.8409C302.541 37.5985 304.01 38.5303 305.253 39.6364C306.495 40.7424 307.457 42.0455 308.139 43.5455C308.836 45.0455 309.192 46.7652 309.207 48.7045C309.192 51.553 308.465 54.0227 307.026 56.1136C305.601 58.1894 303.541 59.803 300.844 60.9545C298.162 62.0909 294.927 62.6591 291.139 62.6591C287.382 62.6591 284.109 62.0833 281.321 60.9318C278.548 59.7803 276.382 58.0758 274.821 55.8182C273.276 53.5455 272.465 50.7348 272.389 47.3864H281.912C282.018 48.947 282.465 50.25 283.253 51.2955C284.056 52.3258 285.124 53.1061 286.457 53.6364C287.806 54.1515 289.329 54.4091 291.026 54.4091C292.692 54.4091 294.139 54.1667 295.366 53.6818C296.609 53.197 297.571 52.5227 298.253 51.6591C298.935 50.7955 299.276 49.803 299.276 48.6818C299.276 47.6364 298.965 46.7576 298.344 46.0455C297.738 45.3333 296.844 44.7273 295.662 44.2273C294.495 43.7273 293.063 43.2727 291.366 42.8636L286.298 41.5909C282.374 40.6364 279.276 39.1439 277.003 37.1136C274.73 35.0833 273.601 32.3485 273.616 28.9091C273.601 26.0909 274.351 23.6288 275.866 21.5227C277.397 19.4167 279.495 17.7727 282.162 16.5909C284.829 15.4091 287.859 14.8182 291.253 14.8182C294.707 14.8182 297.723 15.4091 300.298 16.5909C302.889 17.7727 304.904 19.4167 306.344 21.5227C307.783 23.6288 308.526 26.0682 308.571 28.8409H299.139ZM341.077 28.8409C340.895 27.0076 340.115 25.5833 338.736 24.5682C337.357 23.553 335.486 23.0455 333.122 23.0455C331.516 23.0455 330.16 23.2727 329.054 23.7273C327.948 24.1667 327.099 24.7803 326.509 25.5682C325.933 26.3561 325.645 27.25 325.645 28.25C325.615 29.0833 325.789 29.8106 326.168 30.4318C326.562 31.053 327.099 31.5909 327.781 32.0455C328.463 32.4848 329.251 32.8712 330.145 33.2045C331.039 33.5227 331.993 33.7955 333.009 34.0227L337.19 35.0227C339.221 35.4773 341.084 36.0833 342.781 36.8409C344.478 37.5985 345.948 38.5303 347.19 39.6364C348.433 40.7424 349.395 42.0455 350.077 43.5455C350.774 45.0455 351.13 46.7652 351.145 48.7045C351.13 51.553 350.402 54.0227 348.963 56.1136C347.539 58.1894 345.478 59.803 342.781 60.9545C340.099 62.0909 336.865 62.6591 333.077 62.6591C329.319 62.6591 326.046 62.0833 323.259 60.9318C320.486 59.7803 318.319 58.0758 316.759 55.8182C315.213 53.5455 314.402 50.7348 314.327 47.3864H323.849C323.955 48.947 324.402 50.25 325.19 51.2955C325.993 52.3258 327.062 53.1061 328.395 53.6364C329.743 54.1515 331.266 54.4091 332.963 54.4091C334.63 54.4091 336.077 54.1667 337.304 53.6818C338.546 53.197 339.509 52.5227 340.19 51.6591C340.872 50.7955 341.213 49.803 341.213 48.6818C341.213 47.6364 340.902 46.7576 340.281 46.0455C339.675 45.3333 338.781 44.7273 337.599 44.2273C336.433 43.7273 335.001 43.2727 333.304 42.8636L328.236 41.5909C324.312 40.6364 321.213 39.1439 318.94 37.1136C316.668 35.0833 315.539 32.3485 315.554 28.9091C315.539 26.0909 316.289 23.6288 317.804 21.5227C319.334 19.4167 321.433 17.7727 324.099 16.5909C326.766 15.4091 329.796 14.8182 333.19 14.8182C336.645 14.8182 339.66 15.4091 342.236 16.5909C344.827 17.7727 346.842 19.4167 348.281 21.5227C349.721 23.6288 350.463 26.0682 350.509 28.8409H341.077Z" fill="url(#paint0_radial_7_8)" shape-rendering="crispEdges"/>
</g>
<g filter="url(#filter1_d_7_8)">
<path d="M92.0994 62H81.554L97.6222 15.4545H110.304L126.349 62H115.804L104.145 26.0909H103.781L92.0994 62ZM91.4403 43.7045H116.349V51.3864H91.4403V43.7045ZM145.872 75.8182C142.736 75.8182 140.046 75.3864 137.804 74.5227C135.577 73.6742 133.804 72.5152 132.486 71.0455C131.168 69.5758 130.312 67.9242 129.918 66.0909L138.872 64.8864C139.145 65.5833 139.577 66.2348 140.168 66.8409C140.759 67.447 141.539 67.9318 142.509 68.2955C143.493 68.6742 144.69 68.8636 146.099 68.8636C148.205 68.8636 149.94 68.3485 151.304 67.3182C152.683 66.303 153.372 64.5985 153.372 62.2045V55.8182H152.963C152.539 56.7879 151.902 57.7045 151.054 58.5682C150.205 59.4318 149.115 60.1364 147.781 60.6818C146.448 61.2273 144.857 61.5 143.009 61.5C140.387 61.5 138.001 60.8939 135.849 59.6818C133.713 58.4545 132.009 56.5833 130.736 54.0682C129.478 51.5379 128.849 48.3409 128.849 44.4773C128.849 40.5227 129.493 37.2197 130.781 34.5682C132.069 31.9167 133.781 29.9318 135.918 28.6136C138.069 27.2955 140.425 26.6364 142.986 26.6364C144.94 26.6364 146.577 26.9697 147.895 27.6364C149.213 28.2879 150.274 29.1061 151.077 30.0909C151.895 31.0606 152.524 32.0152 152.963 32.9545H153.327V27.0909H162.94V62.3409C162.94 65.3106 162.213 67.7955 160.759 69.7955C159.304 71.7955 157.289 73.2955 154.713 74.2955C152.152 75.3106 149.205 75.8182 145.872 75.8182ZM146.077 54.2273C147.637 54.2273 148.955 53.8409 150.031 53.0682C151.122 52.2803 151.955 51.1591 152.531 49.7045C153.122 48.2348 153.418 46.4773 153.418 44.4318C153.418 42.3864 153.13 40.6136 152.554 39.1136C151.978 37.5985 151.145 36.4242 150.054 35.5909C148.963 34.7576 147.637 34.3409 146.077 34.3409C144.486 34.3409 143.145 34.7727 142.054 35.6364C140.963 36.4848 140.137 37.6667 139.577 39.1818C139.016 40.697 138.736 42.447 138.736 44.4318C138.736 46.447 139.016 48.1894 139.577 49.6591C140.152 51.1136 140.978 52.2424 142.054 53.0455C143.145 53.8333 144.486 54.2273 146.077 54.2273ZM170.645 62V27.0909H180.031V33.1818H180.395C181.031 31.0152 182.099 29.3788 183.599 28.2727C185.099 27.1515 186.827 26.5909 188.781 26.5909C189.266 26.5909 189.789 26.6212 190.349 26.6818C190.91 26.7424 191.402 26.8258 191.827 26.9318V35.5227C191.372 35.3864 190.743 35.2652 189.94 35.1591C189.137 35.053 188.402 35 187.736 35C186.312 35 185.039 35.3106 183.918 35.9318C182.812 36.5379 181.933 37.3864 181.281 38.4773C180.645 39.5682 180.327 40.8258 180.327 42.25V62H170.645Z" fill="url(#paint1_radial_7_8)" shape-rendering="crispEdges"/>
</g>
<g filter="url(#filter2_d_7_8)">
<path d="M202.213 62V27.0909H214.759V62H202.213ZM208.486 23.4545C206.789 23.4545 205.334 22.8939 204.122 21.7727C202.91 20.6515 202.304 19.303 202.304 17.7273C202.304 16.1515 202.91 14.803 204.122 13.6818C205.334 12.5606 206.789 12 208.486 12C210.198 12 211.652 12.5606 212.849 13.6818C214.062 14.803 214.668 16.1515 214.668 17.7273C214.668 19.303 214.062 20.6515 212.849 21.7727C211.652 22.8939 210.198 23.4545 208.486 23.4545Z" fill="url(#paint2_radial_7_8)" shape-rendering="crispEdges"/>
</g>
<path d="M68.8792 35.1133C70.0242 52.1 57.3063 66.9043 40.2837 68.2833C38.5198 68.4262 36.7782 68.4193 35.0716 68.2734C33.9267 51.2868 46.6445 36.4824 63.6671 35.1035C65.4311 34.9606 67.1726 34.9674 68.8792 35.1133Z" fill="url(#paint3_linear_7_8)"/>
<path d="M35.2147 0.197318C54.312 18.2987 56.7478 47.3239 40.5682 65.3266C38.8916 67.1922 37.0803 68.8667 35.1586 70.3503C16.0614 52.2489 13.6256 23.2238 29.8052 5.22099C31.4818 3.35546 33.293 1.68088 35.2147 0.197318Z" fill="url(#paint4_linear_7_8)"/>
<path d="M2.11333 35.0716C19.1 33.9266 33.9045 46.6445 35.2834 63.6671C35.4263 65.4311 35.4194 67.1726 35.2735 68.8792C18.2868 70.0242 3.4824 57.3063 2.10346 40.2837C1.96057 38.5198 1.96741 36.7782 2.11333 35.0716Z" fill="url(#paint5_linear_7_8)"/>
<circle cx="35.5916" cy="55.5916" r="15.5916" fill="url(#paint6_linear_7_8)"/>
<defs>
<filter id="filter0_d_7_8" x="223.327" y="14.8182" width="131.818" height="55.8409" filterUnits="userSpaceOnUse" color-interpolation-filters="sRGB">
<feFlood flood-opacity="0" result="BackgroundImageFix"/>
<feColorMatrix in="SourceAlpha" type="matrix" values="0 0 0 0 0 0 0 0 0 0 0 0 0 0 0 0 0 0 127 0" result="hardAlpha"/>
<feOffset dy="4"/>
<feGaussianBlur stdDeviation="2"/>
<feComposite in2="hardAlpha" operator="out"/>
<feColorMatrix type="matrix" values="0 0 0 0 0 0 0 0 0 0 0 0 0 0 0 0 0 0 0.25 0"/>
<feBlend mode="normal" in2="BackgroundImageFix" result="effect1_dropShadow_7_8"/>
<feBlend mode="normal" in="SourceGraphic" in2="effect1_dropShadow_7_8" result="shape"/>
</filter>
<filter id="filter1_d_7_8" x="77.554" y="15.4545" width="118.273" height="68.3636" filterUnits="userSpaceOnUse" color-interpolation-filters="sRGB">
<feFlood flood-opacity="0" result="BackgroundImageFix"/>
<feColorMatrix in="SourceAlpha" type="matrix" values="0 0 0 0 0 0 0 0 0 0 0 0 0 0 0 0 0 0 127 0" result="hardAlpha"/>
<feOffset dy="4"/>
<feGaussianBlur stdDeviation="2"/>
<feComposite in2="hardAlpha" operator="out"/>
<feColorMatrix type="matrix" values="0 0 0 0 0 0 0 0 0 0 0 0 0 0 0 0 0 0 0.25 0"/>
<feBlend mode="normal" in2="BackgroundImageFix" result="effect1_dropShadow_7_8"/>
<feBlend mode="normal" in="SourceGraphic" in2="effect1_dropShadow_7_8" result="shape"/>
</filter>
<filter id="filter2_d_7_8" x="198.213" y="12" width="20.5455" height="58" filterUnits="userSpaceOnUse" color-interpolation-filters="sRGB">
<feFlood flood-opacity="0" result="BackgroundImageFix"/>
<feColorMatrix in="SourceAlpha" type="matrix" values="0 0 0 0 0 0 0 0 0 0 0 0 0 0 0 0 0 0 127 0" result="hardAlpha"/>
<feOffset dy="4"/>
<feGaussianBlur stdDeviation="2"/>
<feComposite in2="hardAlpha" operator="out"/>
<feColorMatrix type="matrix" values="0 0 0 0 0 0 0 0 0 0 0 0 0 0 0 0 0 0 0.25 0"/>
<feBlend mode="normal" in2="BackgroundImageFix" result="effect1_dropShadow_7_8"/>
<feBlend mode="normal" in="SourceGraphic" in2="effect1_dropShadow_7_8" result="shape"/>
</filter>
<radialGradient id="paint0_radial_7_8" cx="0" cy="0" r="1" gradientUnits="userSpaceOnUse" gradientTransform="translate(281.38 21.8513) rotate(80.0068) scale(205.263 351.762)">
<stop stop-color="#196D3A"/>
<stop offset="1" stop-color="#22B24B" stop-opacity="0"/>
</radialGradient>
<radialGradient id="paint1_radial_7_8" cx="0" cy="0" r="1" gradientUnits="userSpaceOnUse" gradientTransform="translate(130.359 21.8513) rotate(81.3576) scale(204.47 304.605)">
<stop stop-color="#196D3A"/>
<stop offset="1" stop-color="#22B24B" stop-opacity="0"/>
</radialGradient>
<radialGradient id="paint2_radial_7_8" cx="0" cy="0" r="1" gradientUnits="userSpaceOnUse" gradientTransform="translate(206.815 21.8513) rotate(87.6123) scale(202.324 84.4504)">
<stop stop-color="#196D3A"/>
<stop offset="1" stop-color="#22B24B" stop-opacity="0"/>
</radialGradient>
<linearGradient id="paint3_linear_7_8" x1="52.2195" y1="47.8508" x2="51.0841" y2="125.466" gradientUnits="userSpaceOnUse">
<stop stop-color="#196D3A"/>
<stop offset="1" stop-color="#196D3A" stop-opacity="0"/>
</linearGradient>
<linearGradient id="paint4_linear_7_8" x1="31.3878" y1="30.693" x2="111.823" y2="119.759" gradientUnits="userSpaceOnUse">
<stop stop-color="#196D3A"/>
<stop offset="1" stop-color="#196D3A" stop-opacity="0"/>
</linearGradient>
<linearGradient id="paint5_linear_7_8" x1="18.9335" y1="48.0679" x2="17.7395" y2="126.994" gradientUnits="userSpaceOnUse">
<stop stop-color="#196D3A"/>
<stop offset="1" stop-color="#196D3A" stop-opacity="0"/>
</linearGradient>
<linearGradient id="paint6_linear_7_8" x1="35.8159" y1="52.0026" x2="34.7374" y2="124.495" gradientUnits="userSpaceOnUse">
<stop stop-color="#196D3A"/>
<stop offset="1" stop-color="#196D3A" stop-opacity="0"/>
</linearGradient>
</defs>
</svg>
