<svg width="311" height="148" viewBox="0 0 311 148" fill="none" xmlns="http://www.w3.org/2000/svg">
<g filter="url(#filter0_d_23_127)">
<path d="M26.1399 78H12.9581L33.0433 19.8182H48.8956L68.9524 78H55.7706L41.1967 33.1136H40.7422L26.1399 78ZM25.3161 55.1307H56.4524V64.733H25.3161V55.1307ZM111.8 38.625C111.403 37.2424 110.844 36.0208 110.124 34.9602C109.405 33.8807 108.524 32.9716 107.482 32.233C106.46 31.4754 105.285 30.8977 103.96 30.5C102.653 30.1023 101.204 29.9034 99.6129 29.9034C96.6394 29.9034 94.0258 30.642 91.772 32.1193C89.5372 33.5966 87.7947 35.7462 86.5447 38.5682C85.2947 41.3712 84.6697 44.7992 84.6697 48.8523C84.6697 52.9053 85.2853 56.3523 86.5163 59.1932C87.7474 62.0341 89.4898 64.2027 91.7436 65.6989C93.9974 67.1761 96.6584 67.9148 99.7266 67.9148C102.511 67.9148 104.888 67.4223 106.857 66.4375C108.846 65.4337 110.361 64.0227 111.403 62.2045C112.463 60.3864 112.994 58.2367 112.994 55.7557L115.494 56.125H100.494V46.8636H124.84V54.1932C124.84 59.3068 123.761 63.7008 121.602 67.375C119.442 71.0303 116.469 73.8523 112.681 75.8409C108.893 77.8106 104.556 78.7955 99.6697 78.7955C94.2152 78.7955 89.4235 77.5928 85.2947 75.1875C81.166 72.7633 77.9463 69.3258 75.6357 64.875C73.344 60.4053 72.1982 55.1023 72.1982 48.9659C72.1982 44.25 72.88 40.0455 74.2436 36.3523C75.6262 32.6402 77.558 29.4962 80.0391 26.9205C82.5201 24.3447 85.4084 22.3845 88.7038 21.0398C91.9993 19.6951 95.5694 19.0227 99.4141 19.0227C102.71 19.0227 105.778 19.5057 108.619 20.4716C111.46 21.4186 113.978 22.7633 116.175 24.5057C118.391 26.2481 120.2 28.322 121.602 30.7273C123.003 33.1136 123.903 35.7462 124.3 38.625H111.8ZM134.08 78V19.8182H157.035C161.429 19.8182 165.179 20.6042 168.285 22.1761C171.41 23.7292 173.787 25.9356 175.415 28.7955C177.063 31.6364 177.887 34.9792 177.887 38.8239C177.887 42.6875 177.054 46.0114 175.387 48.7955C173.72 51.5606 171.306 53.6818 168.143 55.1591C164.999 56.6364 161.192 57.375 156.722 57.375H141.353V47.4886H154.734C157.082 47.4886 159.033 47.1667 160.586 46.5227C162.139 45.8788 163.294 44.9129 164.052 43.625C164.828 42.3371 165.217 40.7367 165.217 38.8239C165.217 36.892 164.828 35.2633 164.052 33.9375C163.294 32.6117 162.129 31.608 160.558 30.9261C159.004 30.2254 157.044 29.875 154.677 29.875H146.381V78H134.08ZM165.501 51.5227L179.961 78H166.381L152.234 51.5227H165.501ZM198.881 19.8182V78H186.58V19.8182H198.881Z" fill="url(#paint0_radial_23_127)" shape-rendering="crispEdges"/>
</g>
<g filter="url(#filter1_d_23_127)">
<path d="M31.6392 99.8409C31.4574 98.0076 30.6771 96.5833 29.2983 95.5682C27.9195 94.553 26.0483 94.0455 23.6847 94.0455C22.0786 94.0455 20.7225 94.2727 19.6165 94.7273C18.5104 95.1667 17.6619 95.7803 17.071 96.5682C16.4953 97.3561 16.2074 98.25 16.2074 99.25C16.1771 100.083 16.3513 100.811 16.7301 101.432C17.1241 102.053 17.6619 102.591 18.3438 103.045C19.0256 103.485 19.8134 103.871 20.7074 104.205C21.6013 104.523 22.5559 104.795 23.571 105.023L27.7528 106.023C29.7831 106.477 31.6468 107.083 33.3438 107.841C35.0407 108.598 36.5104 109.53 37.7528 110.636C38.9953 111.742 39.9574 113.045 40.6392 114.545C41.3362 116.045 41.6922 117.765 41.7074 119.705C41.6922 122.553 40.965 125.023 39.5256 127.114C38.1013 129.189 36.0407 130.803 33.3438 131.955C30.6619 133.091 27.4271 133.659 23.6392 133.659C19.8816 133.659 16.6089 133.083 13.821 131.932C11.0483 130.78 8.88163 129.076 7.32102 126.818C5.77557 124.545 4.96496 121.735 4.8892 118.386H14.4119C14.518 119.947 14.965 121.25 15.7528 122.295C16.5559 123.326 17.6241 124.106 18.9574 124.636C20.3059 125.152 21.8286 125.409 23.5256 125.409C25.1922 125.409 26.6392 125.167 27.8665 124.682C29.1089 124.197 30.071 123.523 30.7528 122.659C31.4347 121.795 31.7756 120.803 31.7756 119.682C31.7756 118.636 31.465 117.758 30.8438 117.045C30.2377 116.333 29.3438 115.727 28.1619 115.227C26.9953 114.727 25.5634 114.273 23.8665 113.864L18.7983 112.591C14.8741 111.636 11.7756 110.144 9.50284 108.114C7.23011 106.083 6.10133 103.348 6.11648 99.9091C6.10133 97.0909 6.85133 94.6288 8.36648 92.5227C9.89678 90.4167 11.9953 88.7727 14.6619 87.5909C17.3286 86.4091 20.3589 85.8182 23.7528 85.8182C27.2074 85.8182 30.2225 86.4091 32.7983 87.5909C35.3892 88.7727 37.4044 90.4167 38.8438 92.5227C40.2831 94.6288 41.0256 97.0682 41.071 99.8409H31.6392ZM77.0767 86.4545H86.9176V116.682C86.9176 120.076 86.107 123.045 84.4858 125.591C82.8797 128.136 80.6297 130.121 77.7358 131.545C74.8419 132.955 71.4706 133.659 67.6222 133.659C63.7585 133.659 60.3797 132.955 57.4858 131.545C54.5919 130.121 52.3419 128.136 50.7358 125.591C49.1297 123.045 48.3267 120.076 48.3267 116.682V86.4545H58.1676V115.841C58.1676 117.614 58.554 119.189 59.3267 120.568C60.1146 121.947 61.2206 123.03 62.6449 123.818C64.0691 124.606 65.7282 125 67.6222 125C69.5313 125 71.1903 124.606 72.5994 123.818C74.0237 123.03 75.1222 121.947 75.8949 120.568C76.6828 119.189 77.0767 117.614 77.0767 115.841V86.4545ZM95.0142 133V86.4545H113.378C116.908 86.4545 119.916 87.1288 122.401 88.4773C124.885 89.8106 126.779 91.6667 128.082 94.0455C129.401 96.4091 130.06 99.1364 130.06 102.227C130.06 105.318 129.393 108.045 128.06 110.409C126.726 112.773 124.795 114.614 122.264 115.932C119.749 117.25 116.704 117.909 113.128 117.909H101.423V110.023H111.537C113.431 110.023 114.991 109.697 116.219 109.045C117.461 108.379 118.385 107.462 118.991 106.295C119.613 105.114 119.923 103.758 119.923 102.227C119.923 100.682 119.613 99.3333 118.991 98.1818C118.385 97.0151 117.461 96.1136 116.219 95.4773C114.976 94.8258 113.401 94.5 111.491 94.5H104.855V133H95.0142ZM136.452 133V86.4545H154.815C158.346 86.4545 161.353 87.1288 163.838 88.4773C166.323 89.8106 168.217 91.6667 169.52 94.0455C170.838 96.4091 171.497 99.1364 171.497 102.227C171.497 105.318 170.83 108.045 169.497 110.409C168.164 112.773 166.232 114.614 163.702 115.932C161.187 117.25 158.141 117.909 154.565 117.909H142.861V110.023H152.974C154.868 110.023 156.429 109.697 157.656 109.045C158.899 108.379 159.823 107.462 160.429 106.295C161.05 105.114 161.361 103.758 161.361 102.227C161.361 100.682 161.05 99.3333 160.429 98.1818C159.823 97.0151 158.899 96.1136 157.656 95.4773C156.414 94.8258 154.838 94.5 152.929 94.5H146.293V133H136.452ZM220.662 109.727C220.662 114.803 219.7 119.121 217.776 122.682C215.866 126.242 213.26 128.962 209.957 130.841C206.67 132.705 202.973 133.636 198.866 133.636C194.73 133.636 191.018 132.697 187.73 130.818C184.442 128.939 181.844 126.22 179.935 122.659C178.026 119.098 177.071 114.788 177.071 109.727C177.071 104.652 178.026 100.333 179.935 96.7727C181.844 93.2121 184.442 90.5 187.73 88.6364C191.018 86.7576 194.73 85.8182 198.866 85.8182C202.973 85.8182 206.67 86.7576 209.957 88.6364C213.26 90.5 215.866 93.2121 217.776 96.7727C219.7 100.333 220.662 104.652 220.662 109.727ZM210.685 109.727C210.685 106.439 210.192 103.667 209.207 101.409C208.238 99.1515 206.866 97.4394 205.094 96.2727C203.321 95.1061 201.245 94.5227 198.866 94.5227C196.488 94.5227 194.412 95.1061 192.639 96.2727C190.866 97.4394 189.488 99.1515 188.503 101.409C187.533 103.667 187.048 106.439 187.048 109.727C187.048 113.015 187.533 115.788 188.503 118.045C189.488 120.303 190.866 122.015 192.639 123.182C194.412 124.348 196.488 124.932 198.866 124.932C201.245 124.932 203.321 124.348 205.094 123.182C206.866 122.015 208.238 120.303 209.207 118.045C210.192 115.788 210.685 113.015 210.685 109.727ZM227.952 133V86.4545H246.315C249.83 86.4545 252.83 87.0833 255.315 88.3409C257.815 89.5833 259.717 91.3485 261.02 93.6364C262.338 95.9091 262.997 98.5833 262.997 101.659C262.997 104.75 262.33 107.409 260.997 109.636C259.664 111.848 257.732 113.545 255.202 114.727C252.687 115.909 249.641 116.5 246.065 116.5H233.77V108.591H244.474C246.353 108.591 247.914 108.333 249.156 107.818C250.399 107.303 251.323 106.53 251.929 105.5C252.55 104.47 252.861 103.189 252.861 101.659C252.861 100.114 252.55 98.8106 251.929 97.75C251.323 96.6894 250.391 95.8864 249.134 95.3409C247.891 94.7803 246.323 94.5 244.429 94.5H237.793V133H227.952ZM253.088 111.818L264.656 133H253.793L242.474 111.818H253.088ZM268.179 94.5682V86.4545H306.406V94.5682H292.156V133H282.429V94.5682H268.179Z" fill="url(#paint1_radial_23_127)" shape-rendering="crispEdges"/>
</g>
<path d="M284.471 49.6738C285.643 64.5128 272.631 77.4454 255.215 78.65C253.41 78.7748 251.628 78.7688 249.882 78.6413C248.711 63.8024 261.723 50.8698 279.139 49.6652C280.943 49.5404 282.725 49.5464 284.471 49.6738Z" fill="url(#paint2_linear_23_127)"/>
<path d="M250.029 19.1724C269.567 34.9851 272.059 60.3405 255.506 76.0671C253.791 77.6968 251.937 79.1596 249.971 80.4556C230.433 64.6428 227.941 39.2875 244.494 23.5609C246.209 21.9312 248.063 20.4684 250.029 19.1724Z" fill="url(#paint3_linear_23_127)"/>
<path d="M216.162 49.6374C233.541 48.6371 248.688 59.7471 250.099 74.6174C250.245 76.1584 250.238 77.6797 250.089 79.1705C232.71 80.1708 217.563 69.0609 216.152 54.1905C216.006 52.6496 216.013 51.1282 216.162 49.6374Z" fill="url(#paint4_linear_23_127)"/>
<ellipse cx="250.414" cy="67.5629" rx="15.952" ry="13.6203" fill="url(#paint5_linear_23_127)"/>
<defs>
<filter id="filter0_d_23_127" x="8.9581" y="19.0227" width="193.923" height="67.7727" filterUnits="userSpaceOnUse" color-interpolation-filters="sRGB">
<feFlood flood-opacity="0" result="BackgroundImageFix"/>
<feColorMatrix in="SourceAlpha" type="matrix" values="0 0 0 0 0 0 0 0 0 0 0 0 0 0 0 0 0 0 127 0" result="hardAlpha"/>
<feOffset dy="4"/>
<feGaussianBlur stdDeviation="2"/>
<feComposite in2="hardAlpha" operator="out"/>
<feColorMatrix type="matrix" values="0 0 0 0 0 0 0 0 0 0 0 0 0 0 0 0 0 0 0.25 0"/>
<feBlend mode="normal" in2="BackgroundImageFix" result="effect1_dropShadow_23_127"/>
<feBlend mode="normal" in="SourceGraphic" in2="effect1_dropShadow_23_127" result="shape"/>
</filter>
<filter id="filter1_d_23_127" x="0.889206" y="85.8182" width="309.517" height="55.8408" filterUnits="userSpaceOnUse" color-interpolation-filters="sRGB">
<feFlood flood-opacity="0" result="BackgroundImageFix"/>
<feColorMatrix in="SourceAlpha" type="matrix" values="0 0 0 0 0 0 0 0 0 0 0 0 0 0 0 0 0 0 127 0" result="hardAlpha"/>
<feOffset dy="4"/>
<feGaussianBlur stdDeviation="2"/>
<feComposite in2="hardAlpha" operator="out"/>
<feColorMatrix type="matrix" values="0 0 0 0 0 0 0 0 0 0 0 0 0 0 0 0 0 0 0.25 0"/>
<feBlend mode="normal" in2="BackgroundImageFix" result="effect1_dropShadow_23_127"/>
<feBlend mode="normal" in="SourceGraphic" in2="effect1_dropShadow_23_127" result="shape"/>
</filter>
<radialGradient id="paint0_radial_23_127" cx="0" cy="0" r="1" gradientUnits="userSpaceOnUse" gradientTransform="translate(97.0108 27.527) rotate(78.3558) scale(260.006 515.399)">
<stop stop-color="#196D3A"/>
<stop offset="1" stop-color="#22B24B" stop-opacity="0"/>
</radialGradient>
<radialGradient id="paint1_radial_23_127" cx="0" cy="0" r="1" gradientUnits="userSpaceOnUse" gradientTransform="translate(138.815 92.8513) rotate(67.5624) scale(218.706 773.69)">
<stop stop-color="#196D3A"/>
<stop offset="1" stop-color="#22B24B" stop-opacity="0"/>
</radialGradient>
<linearGradient id="paint2_linear_23_127" x1="267.427" y1="60.8008" x2="266.58" y2="128.607" gradientUnits="userSpaceOnUse">
<stop stop-color="#196D3A"/>
<stop offset="1" stop-color="#196D3A" stop-opacity="0"/>
</linearGradient>
<linearGradient id="paint3_linear_23_127" x1="246.113" y1="45.8124" x2="314.423" y2="134.401" gradientUnits="userSpaceOnUse">
<stop stop-color="#196D3A"/>
<stop offset="1" stop-color="#196D3A" stop-opacity="0"/>
</linearGradient>
<linearGradient id="paint4_linear_23_127" x1="233.371" y1="60.9905" x2="232.481" y2="129.942" gradientUnits="userSpaceOnUse">
<stop stop-color="#196D3A"/>
<stop offset="1" stop-color="#196D3A" stop-opacity="0"/>
</linearGradient>
<linearGradient id="paint5_linear_23_127" x1="250.644" y1="64.4277" x2="249.839" y2="127.759" gradientUnits="userSpaceOnUse">
<stop stop-color="#196D3A"/>
<stop offset="1" stop-color="#196D3A" stop-opacity="0"/>
</linearGradient>
</defs>
</svg>
